<svg xmlns="http://www.w3.org/2000/svg" xmlns:xlink="http://www.w3.org/1999/xlink" width="32" height="33" viewBox="0 0 32 33"><defs><path id="poksa" d="M420.48 4848.94c2.1 0 .92 5.53-.92 5.53.92 0 0 4.61-1.85 4.61 0 1.85-1.8 2.95-3.65 2.95-7.76 0-5.17-2.15-12.94-2.98v-.04h-.07l-.07-14.68h.14v-.04c6.9-2.1 13.83-7.29 13.83-11.94 1.52 0 5.46 1.45-.08 10.66h5.57c2.77 0 1.88 5.93.04 5.93-1.85 0 0 0 0 0zm-19.43 10.1v-.03h-2.03v-14.68h1.96l.14-.04v-1.31h-3.76c-1.01 0-2.42 1.71-2.42 3.23l.04 11.03c0 1.52 1.44 2.76 2.45 2.76h3.7v-.95h-.08z"/></defs><g><g transform="translate(-393 -4831)"><use fill="#fff" xlink:href="#poksa"/></g></g></svg>