<svg xmlns="http://www.w3.org/2000/svg" xmlns:xlink="http://www.w3.org/1999/xlink" width="33" height="36" viewBox="0 0 33 36"><defs><path id="z5kja" d="M408.91 4673.61a14.32 14.32 0 1 1 0 28.65 14.32 14.32 0 0 1 0-28.65s-7.9 0 0 0zm0 25.84a11.5 11.5 0 1 0 0-23.02 11.5 11.5 0 0 0 0 23.02s-6.35 0 0 0zm13.52-20.75a16.38 16.38 0 0 0-10.2-6.8 6.13 6.13 0 0 1 10.2 6.8s2.35 3.44 0 0zm-16.85-6.8a16.38 16.38 0 0 0-10.19 6.8 6.12 6.12 0 0 1 5.34-9.18c1.97 0 3.73.94 4.85 2.39 0 0 4.22-.87 0 0zm1.29 8.08h2.18l.03 7.96h-.21l.04 2.04h-2.04zm8.18 10v-2.04h-5.97l.01 2.04z"/></defs><g><g transform="translate(-393 -4668)"><use fill="#fff" xlink:href="#z5kja"/></g></g></svg>