<svg xmlns="http://www.w3.org/2000/svg" xmlns:xlink="http://www.w3.org/1999/xlink" width="35" height="35" viewBox="0 0 35 35"><defs><path id="eytca" d="M1008.87 4670.47a16.1 16.1 0 1 1 0 32.19 16.1 16.1 0 0 1 0-32.19s-8.89 0 0 0zm-6.03 16.1a6.03 6.03 0 1 0 12.06 0 6.03 6.03 0 0 0-12.06 0s0-3.34 0 0zm19.05 5.39a14.06 14.06 0 0 0 0-10.79l-1.75.72-3.83 1.6a8 8 0 0 1 0 6.16l5.58 2.3s-.7 1.67 0 0zm-7.63-18.41a14.07 14.07 0 0 0-10.78 0l1.23 2.96 1.08 2.62a8 8 0 0 1 6.16 0l2.31-5.58s1.66.69 0 0zm-18.4 7.62a14.06 14.06 0 0 0 0 10.79l5.57-2.31a8 8 0 0 1 0-6.17l-2.61-1.08-2.96-1.23s.68-1.66 0 0zm7.62 18.4a14.06 14.06 0 0 0 10.78 0l-2.3-5.57a8.01 8.01 0 0 1-6.17 0l-1.59 3.84-.72 1.74s-1.66-.69 0 0z"/></defs><g><g transform="translate(-991 -4669)"><use fill="#fff" xlink:href="#eytca"/></g></g></svg>