<svg xmlns="http://www.w3.org/2000/svg" xmlns:xlink="http://www.w3.org/1999/xlink" width="36" height="32" viewBox="0 0 36 32"><defs><path id="sfgca" d="M1006.43 4832.63c7.54 0 13.65 4.94 13.65 11.04 0 6.1-6.11 11.05-13.65 11.05-.73 0-1.44-.05-2.13-.13-2.93 2.92-6.32 3.44-9.7 3.52v-.72c1.83-.89 3.3-2.51 3.3-4.37 0-.26-.02-.51-.06-.76-3.09-2.03-5.06-5.12-5.06-8.59 0-6.1 6.1-11.04 13.65-11.04 7.54 0 0 0 0 0zm14.67 24.76c0 1.59 1.03 2.98 2.62 3.74v.62c-2.93-.07-5.62-.52-8.17-3.02-.6.07-1.21.11-1.84.11-2.72 0-5.22-.73-7.21-1.96 4.11-.01 8-1.33 10.94-3.72a13.36 13.36 0 0 0 3.48-4.18 11.33 11.33 0 0 0 1.28-6.2 8.58 8.58 0 0 1 3.34 6.6c0 2.97-1.71 5.62-4.39 7.35-.03.22-.05.44-.05.66 0 .22 0 0 0 0z"/></defs><g><g transform="translate(-991 -4831)"><use fill="#fff" xlink:href="#sfgca"/></g></g></svg>