<svg xmlns="http://www.w3.org/2000/svg" xmlns:xlink="http://www.w3.org/1999/xlink" width="22" height="21" viewBox="0 0 22 21"><defs><path id="y39ma" d="M968.94 1016.68l-8.24 8.24c-.2.2-.45.29-.7.29-.25 0-.5-.1-.7-.29l-8.24-8.24a.98.98 0 0 1 0-1.38l.7-.7a.98.98 0 0 1 1.38 0l6.86 6.86 6.86-6.86a.99.99 0 0 1 1.38 0l.7.7c.38.38.38 1 0 1.38zm0 7.18l-8.24 8.23c-.2.2-.45.3-.7.29-.25 0-.5-.1-.7-.29l-8.24-8.23a.98.98 0 0 1 0-1.39l.7-.7a.98.98 0 0 1 1.38 0l6.86 6.86 6.86-6.85a.98.98 0 0 1 1.38 0l.7.69c.38.38.38 1 0 1.39z"/></defs><g><g transform="translate(-949 -1013)"><use fill="#fff" xlink:href="#y39ma"/></g></g></svg>