<svg xmlns="http://www.w3.org/2000/svg" xmlns:xlink="http://www.w3.org/1999/xlink" width="22" height="21" viewBox="0 0 22 21"><defs><path id="e0i3a" d="M951.06 8480l8.24-8.23c.2-.2.45-.3.7-.29.25 0 .5.1.7.29l8.24 8.23c.38.38.38 1 0 1.39l-.7.7a.98.98 0 0 1-1.38 0l-6.86-6.86-6.86 6.85a.99.99 0 0 1-1.38 0l-.7-.69a.98.98 0 0 1 0-1.39zm0-7.17l8.24-8.24c.2-.19.45-.28.7-.28.25 0 .5.09.7.28l8.24 8.24c.38.38.38 1 0 1.39l-.7.7a.98.98 0 0 1-1.38 0l-6.86-6.87-6.86 6.86a.98.98 0 0 1-1.38 0l-.7-.7a.98.98 0 0 1 0-1.38z"/></defs><g><g transform="translate(-949 -8463)"><use fill="#fff" xlink:href="#e0i3a"/></g></g></svg>