<svg xmlns="http://www.w3.org/2000/svg" xmlns:xlink="http://www.w3.org/1999/xlink" width="49" height="39" viewBox="0 0 49 39"><defs><path id="x7r4a" d="M1481 1872.99l-3.97.03c.47.81.81 2.38.81 3.39 0 3.05-2.5 5.53-5.59 5.53a5.56 5.56 0 0 1-5.58-5.53c0-1 .42-2.58.9-3.4l-15.46-.02c.47.81.59 2.41.59 3.42 0 3.05-2.5 5.53-5.59 5.53a5.56 5.56 0 0 1-5.59-5.53c0-1 .5-2.58.97-3.4l-3.88-.02-2.61-2.11.03-22.06a2.76 2.76 0 0 1 2.7-2.83h25.14c1.54 0 3.13 1.25 3.13 2.77v5.26l8.05-.03 5.96 11.05zm-5.05-9l-3.9-7-5.01.07.03 6.93z"/></defs><g><g transform="translate(-1434 -1844)"><use fill="#ffe600" xlink:href="#x7r4a"/></g></g></svg>