<svg xmlns="http://www.w3.org/2000/svg" xmlns:xlink="http://www.w3.org/1999/xlink" width="47" height="47" viewBox="0 0 47 47"><defs><path id="kflja" d="M676.09 1838l2.89 24.54-3.25.38-2.58-21.92h-27.37l-2.58 21.92-3.25-.38 2.9-24.55zm-27.1 4.95h20.98l.04 3.04-21.01.08zm.03 6.04h21.02l-.03 3.03-21.02-.04zm0 6h20.99v3.02l-21.02.03zm-.06 4.99H670l.03 3.06-21.05-.03zm30.99 6c.76 0 1.24.7 1 1.42l-4.54 13.26a2.04 2.04 0 0 1-1.8 1.3h-30.28c-.76 0-1.57-.58-1.81-1.3l-4.48-13.13c-.24-.72.03-1.55.79-1.55l41.03.06s-.67-.06.09-.06zm-14.98 2h-10.98l-.03 3H665z"/></defs><g><g transform="translate(-636 -1836)"><use fill="#ffe600" xlink:href="#kflja"/></g></g></svg>