<svg xmlns="http://www.w3.org/2000/svg" xmlns:xlink="http://www.w3.org/1999/xlink" width="42" height="44" viewBox="0 0 42 44"><defs><path id="x4oba" d="M1254.75 1846.5a5.47 5.47 0 1 1 10.94 0 5.47 5.47 0 0 1-10.94 0s0 3.02 0 0zm11.6 4.81a5.47 5.47 0 1 1 10.94 0 5.47 5.47 0 0 1-10.93 0s0 3.02 0 0zm7.55 11.6a2.74 2.74 0 1 1 5.47 0 2.74 2.74 0 0 1-5.47 0s0 1.51 0 0zm-4.8 11.6a2.74 2.74 0 1 1 5.46 0 2.74 2.74 0 0 1-5.47 0s0 1.52 0 0zm-11.61 4.81a2.74 2.74 0 1 1 5.47 0 2.74 2.74 0 0 1-5.47 0s0 1.51 0 0zm-11.6-4.8a2.74 2.74 0 1 1 5.46 0 2.74 2.74 0 0 1-5.47 0s0 1.5 0 0zm-1.38-23.21a4.1 4.1 0 1 1 8.2 0 4.1 4.1 0 0 1-8.2 0s0 2.27 0 0zm-3.78 11.6a3.08 3.08 0 1 1 6.16 0 3.08 3.08 0 0 1-6.16 0s0 1.7 0 0z"/></defs><g><g transform="translate(-1239 -1840)"><use fill="#ffe600" xlink:href="#x4oba"/></g></g></svg>