<svg xmlns="http://www.w3.org/2000/svg" xmlns:xlink="http://www.w3.org/1999/xlink" width="46" height="48" viewBox="0 0 46 48"><defs><path id="xtasa" d="M1078.14 1863.87a8.38 8.38 0 0 0 3.08 3.13l-4.34 7.66a8.31 8.31 0 0 0-11.46 3.12 8.62 8.62 0 0 0-1.12 4.28h-8.67a8.5 8.5 0 0 0-8.38-8.57c-1.53 0-2.96.42-4.2 1.15l-4.32-7.66a8.69 8.69 0 0 0 3.08-11.7 8.4 8.4 0 0 0-3.1-3.14l4.34-7.66a8.32 8.32 0 0 0 11.5-3.11 8.62 8.62 0 0 0 1.1-4.32h8.67a8.5 8.5 0 0 0 8.38 8.61c1.54 0 2.98-.42 4.22-1.16l4.33 7.66a8.69 8.69 0 0 0-3.1 11.71s-.77-1.35 0 0zm-18.16 4.8a9.02 9.02 0 0 0 8.93-9.12c0-5.03-4-9.1-8.93-9.1a9.02 9.02 0 0 0-8.92 9.1c0 5.04 4 9.12 8.92 9.12 0 0-4.93 0 0 0z"/></defs><g><g transform="translate(-1037 -1836)"><use fill="#ffe600" xlink:href="#xtasa"/></g></g></svg>