<svg xmlns="http://www.w3.org/2000/svg" xmlns:xlink="http://www.w3.org/1999/xlink" width="48" height="48" viewBox="0 0 48 48"><defs><path id="tl89a" d="M478.06 1873.3c3.13 5.3.71 9.63-5.4 9.63h-27.73c-6.1 0-8.53-4.33-5.39-9.63l13.46-23.13-.03-9.36h-1.1a1.4 1.4 0 0 1-1.4-1.4c0-.78.63-1.41 1.4-1.41h13.86c.77 0 1.39.63 1.39 1.4 0 .77-.62 1.4-1.39 1.4H465l-.03 9.37 13.09 23.13s-3.14-5.3 0 0zm-7.61-7.34l-8.44-15.02V1841h-6.02v9.95l-8.9 15.02z"/></defs><g><g transform="translate(-435 -1836)"><use fill="#ffe600" xlink:href="#tl89a"/></g></g></svg>