<svg xmlns="http://www.w3.org/2000/svg" xmlns:xlink="http://www.w3.org/1999/xlink" width="48" height="45" viewBox="0 0 48 45"><defs><path id="45jqa" d="M877.36 1873.54l-12.99-12.99c-.8-.8-2.12-.8-2.92 0l-.97.98-7.93-7.92 13.37-13.58H852.2l-6.53 6.69-.57-.77-3.08.04.03 2.95.7.7-8.87 8.87 6.89 6.9 8.87-8.88 7.92 7.92-.97.97c-.8.8-.8 2.12 0 2.93l12.98 12.98c.8.8 2.12.8 2.92 0l4.87-4.87c.81-.8.81-2.12 0-2.92"/></defs><g><g transform="translate(-832 -1839)"><use fill="#ffe600" xlink:href="#45jqa"/></g></g></svg>