<svg xmlns="http://www.w3.org/2000/svg" xmlns:xlink="http://www.w3.org/1999/xlink" width="45" height="44" viewBox="0 0 45 44"><defs><path id="vaxta" d="M1423.79 1414.7c-.24.71-.52 1.4-.86 2.04l3.45 4.75-5.4 5.31-4.84-3.4c-.66.34-1.35.62-2.06.85l-.97 5.76h-7.64l-.98-5.76c-.7-.23-1.4-.51-2.06-.84l-4.83 3.4-5.4-5.32 3.45-4.75a14.6 14.6 0 0 1-.86-2.03l-5.85-.96v-7.51l5.83-.96c.24-.71.53-1.4.86-2.05l-3.43-4.74 5.4-5.31 4.8 3.37a15.2 15.2 0 0 1 2.1-.85l.97-5.73h7.64l.97 5.73c.72.23 1.42.52 2.1.85l4.8-3.37 5.4 5.32-3.44 4.73c.34.66.63 1.34.86 2.05l6.24 1.11v7.36zm-14.5.3a5.05 5.05 0 0 0 5.09-5c0-2.77-2.28-5.01-5.1-5.01a5.05 5.05 0 0 0-5.08 5c0 2.77 2.28 5 5.09 5 0 0-2.81 0 0 0z"/></defs><g><g transform="translate(-1387 -1388)"><use fill="#fff" xlink:href="#vaxta"/></g></g></svg>