<svg xmlns="http://www.w3.org/2000/svg" xmlns:xlink="http://www.w3.org/1999/xlink" width="41" height="34" viewBox="0 0 41 34"><defs><path id="hnb6a" d="M1102.6 1411.94a7.84 7.84 0 0 1 7.91-7.76c4.37 0 7.91 3.47 7.91 7.76a7.84 7.84 0 0 1-7.9 7.76 7.84 7.84 0 0 1-7.91-7.76s0 4.29 0 0zm24.94-13.13a2.42 2.42 0 0 1 2.44 2.38v21.5c0 1.31-1.1 2.39-2.44 2.39h-34.06a2.42 2.42 0 0 1-2.43-2.4v-21.49c0-1.3 1.1-2.38 2.43-2.38h8.52c.6-2.4 1.22-4.78 3.65-4.78h9.73c2.43 0 3.04 2.39 3.65 4.78h8.51s-1.33 0 0 0zm-17.03 23.73a10.7 10.7 0 0 0 10.8-10.6 10.7 10.7 0 0 0-10.8-10.6 10.7 10.7 0 0 0-10.8 10.6 10.7 10.7 0 0 0 10.8 10.6s-5.96 0 0 0zm17.47-18.55l-4.99-.03v2.07l5-.03z"/></defs><g><g transform="translate(-1090 -1393)"><use fill="#fff" xlink:href="#hnb6a"/></g></g></svg>